<svg width="24" height="24" viewBox="0 0 24 24" fill="none" xmlns="http://www.w3.org/2000/svg">
<path d="M6.15879 3.92527C7.66678 2.8284 9.48176 2.16351 11.3484 2.02814C13.2136 1.88509 15.1325 2.28954 16.7901 3.19261C16.5686 3.11897 16.7132 3.22954 16.9138 3.38298C16.9584 3.41708 17.0057 3.4533 17.0524 3.49009C17.067 3.50173 17.0816 3.51342 17.0962 3.52508C17.2084 3.61482 17.3182 3.70271 17.3652 3.75553C17.4177 3.81504 17.4146 3.83919 17.3 3.79282C17.218 3.75986 17.079 3.68131 16.9022 3.57524C16.8494 3.5436 16.7917 3.51213 16.7311 3.479C16.69 3.45657 16.6475 3.43339 16.6042 3.40887C16.497 3.34801 16.3815 3.28485 16.2579 3.2259C15.771 2.97736 15.1823 2.74135 14.6962 2.63436C13.4461 2.38504 12.6199 2.48865 12.1123 2.61093C11.9845 2.64449 11.8755 2.6789 11.7824 2.71356C11.6894 2.75082 11.6124 2.79055 11.5484 2.82807C11.4205 2.90456 11.3444 2.97535 11.2991 3.04742C11.2766 3.08394 11.0805 3.11911 10.8007 3.16931C10.7043 3.1866 10.598 3.20568 10.4854 3.2272C10.0464 3.31404 9.51501 3.45041 9.1003 3.593C9.37023 3.62935 9.09541 3.81324 8.7057 4.07399C8.58673 4.1536 8.45705 4.24037 8.3289 4.33229C8.0521 4.52593 7.78365 4.74843 7.60735 4.92966C7.43268 5.11412 7.34945 5.25592 7.43114 5.29326C6.92892 5.62231 6.38571 6.06211 5.91025 6.57647C5.4301 7.08586 5.02722 7.67366 4.75274 8.22766C4.56884 8.60251 4.42838 9.00535 4.3209 9.41681C4.27239 9.59024 4.23813 9.76788 4.20402 9.9448C4.19786 9.97679 4.19169 10.0087 4.18545 10.0406C4.18118 10.0711 4.17684 10.1015 4.1725 10.1319C4.14972 10.2915 4.12704 10.4505 4.11376 10.6105C4.03869 11.049 3.99959 11.4997 3.99959 11.9594C3.99959 16.3598 7.58131 19.927 11.9996 19.927C16.4179 19.927 19.9996 16.3598 19.9996 11.9594C19.9996 9.5318 18.9095 7.35775 17.1902 5.89635C17.1841 5.85744 17.227 5.86041 17.3116 5.8998C17.5329 6.00596 18.049 6.38494 18.5772 7.01348C18.5121 6.92724 18.4146 6.81096 18.324 6.70293C18.1915 6.54484 18.0739 6.40442 18.094 6.40164C18.1797 6.39038 18.4053 6.63654 18.6046 6.92999C18.674 7.02797 18.7383 7.13277 18.7985 7.23103C18.8271 7.27762 18.8548 7.32273 18.8816 7.36495C18.9586 7.50099 19.025 7.612 19.0707 7.66809C19.1413 7.67281 18.9393 7.32938 18.6833 6.98012C18.5878 6.85254 18.4851 6.72485 18.392 6.60917C18.2324 6.41082 18.1013 6.2478 18.0838 6.18124C18.4638 6.56668 18.8786 6.99255 19.1397 7.45044C19.2226 7.5093 19.2175 7.46787 19.164 7.37137C19.1368 7.32351 19.0997 7.26066 19.0521 7.19249L18.8892 6.97438C18.8229 6.8851 18.7489 6.79772 18.6805 6.717C18.631 6.65858 18.5845 6.60364 18.546 6.55399C18.4469 6.44182 18.3872 6.36373 18.4141 6.36058C18.7789 6.7752 18.9486 6.99449 19.2483 7.45451C19.0782 7.11027 19.103 7.05738 19.1575 7.02937C19.1634 7.02624 19.1697 7.02349 19.1759 7.02076C19.2248 6.99918 19.2726 6.97813 19.172 6.77349C19.1326 6.65609 19.0773 6.5373 19.0238 6.42259C18.9973 6.36576 18.9713 6.30994 18.9479 6.25577C18.871 6.09785 18.8063 5.96466 18.7957 5.89119C18.7846 5.81823 18.8262 5.80649 18.9581 5.89713C19.09 5.98748 19.3144 6.18 19.6287 6.54824C19.8849 6.79046 20.3971 7.55654 20.7421 8.40081C20.7153 8.28229 20.6762 8.16113 20.6351 8.03384C20.6189 7.98343 20.6023 7.93207 20.5861 7.87952C20.521 7.69816 20.4509 7.50555 20.3658 7.31062C20.8968 8.05339 21.3312 8.88703 21.621 9.76376C21.9208 10.7212 22.0881 11.9651 21.9522 13.2442C21.8266 14.523 21.3977 15.8156 20.8034 16.8598C20.762 16.939 20.717 17.016 20.6718 17.0933C20.6496 17.1311 20.6274 17.169 20.6056 17.2073C20.3144 17.673 19.8824 18.291 19.2609 18.9387C18.947 19.2589 18.5889 19.5871 18.1832 19.9043C17.7743 20.2171 17.319 20.5183 16.8199 20.7883C15.8237 21.3297 14.6469 21.74 13.3906 21.9082C12.1363 22.0811 10.8071 22.0111 9.55364 21.687C8.2977 21.3672 7.13144 20.794 6.15463 20.0842C5.66463 19.7294 5.21997 19.3399 4.8256 18.9342C4.43173 18.5277 4.0928 18.1022 3.80004 17.6826C3.21172 16.8428 2.83662 16.0131 2.58477 15.3323C2.36155 14.7235 2.24604 14.2266 2.17102 13.9038C2.16182 13.8642 2.15322 13.8272 2.14511 13.793C1.82441 11.9287 2.03862 9.9913 2.75447 8.2652C2.93249 7.83396 3.13655 7.41353 3.37329 7.0136C3.60328 6.60946 3.87041 6.22812 4.15388 5.85933C4.4409 5.49275 4.75486 5.14771 5.08791 4.822C5.42712 4.50299 5.77853 4.19523 6.15879 3.92527Z" fill="url(#paint0_angular_311_10)"/>
<defs>
<radialGradient id="paint0_angular_311_10" cx="0" cy="0" r="1" gradientUnits="userSpaceOnUse" gradientTransform="translate(12.0822 11.9772) rotate(-26.0127) scale(10.0256 9.98274)">
<stop offset="0.0795499" stop-color="#D28D0C"/>
<stop offset="0.349502" stop-color="#D28D0C"/>
<stop offset="0.512016" stop-color="#FDF68C"/>
<stop offset="0.760417" stop-color="#F4CD2A"/>
<stop offset="0.977968" stop-color="#F4CD2A"/>
</radialGradient>
</defs>
</svg>
