<svg width="144" height="144" viewBox="0 0 144 144" fill="none" xmlns="http://www.w3.org/2000/svg">
<mask id="path-1-inside-1_229_7" fill="white">
<path d="M143.498 143.5C143.775 143.5 144 143.275 143.999 142.998C143.934 124.324 140.224 105.84 133.077 88.5849C125.865 71.1747 115.295 55.3554 101.97 42.0302C88.6446 28.705 72.8253 18.1348 55.4151 10.9233C38.1596 3.77582 19.6762 0.0662462 1.00235 0.000879226C0.724976 -9.17405e-05 0.5 0.224865 0.5 0.502251C0.5 0.779636 0.724976 1.00441 1.00235 1.00539C19.5443 1.07075 37.897 4.75434 55.0307 11.8513C72.319 19.0124 88.0276 29.5085 101.26 42.7405C114.491 55.9724 124.988 71.681 132.149 88.9693C139.246 106.103 142.929 124.456 142.995 142.998C142.996 143.275 143.22 143.5 143.498 143.5Z"/>
</mask>
<path d="M143.498 143.5C143.775 143.5 144 143.275 143.999 142.998C143.934 124.324 140.224 105.84 133.077 88.5849C125.865 71.1747 115.295 55.3554 101.97 42.0302C88.6446 28.705 72.8253 18.1348 55.4151 10.9233C38.1596 3.77582 19.6762 0.0662462 1.00235 0.000879226C0.724976 -9.17405e-05 0.5 0.224865 0.5 0.502251C0.5 0.779636 0.724976 1.00441 1.00235 1.00539C19.5443 1.07075 37.897 4.75434 55.0307 11.8513C72.319 19.0124 88.0276 29.5085 101.26 42.7405C114.491 55.9724 124.988 71.681 132.149 88.9693C139.246 106.103 142.929 124.456 142.995 142.998C142.996 143.275 143.22 143.5 143.498 143.5Z" stroke="white" stroke-width="4" mask="url(#path-1-inside-1_229_7)"/>
</svg>
