<svg width="287" height="543" viewBox="0 0 287 543" fill="none" xmlns="http://www.w3.org/2000/svg">
<rect x="143" y="286" width="1" height="257" fill="white"/>
<mask id="path-2-inside-1_1_12" fill="white">
<path d="M144.003 286.497C144.004 286.774 143.78 287 143.503 287C124.829 287 106.332 283.356 89.0519 276.269C71.6164 269.119 55.76 258.605 42.3879 245.326C29.0159 232.048 18.3901 216.266 11.1174 198.881C3.90921 181.651 0.134611 163.181 0.00353528 144.507C0.00158827 144.23 0.225752 144.004 0.503136 144.003V144.003C0.78052 144.002 1.00608 144.226 1.00804 144.504C1.13864 163.045 4.8868 181.385 12.044 198.494C19.2659 215.757 29.8173 231.428 43.0957 244.614C56.3741 257.799 72.1196 268.24 89.4331 275.34C106.592 282.376 124.957 285.995 143.499 285.995C143.777 285.996 144.002 286.219 144.003 286.497V286.497Z"/>
</mask>
<path d="M144.003 286.497C144.004 286.774 143.78 287 143.503 287C124.829 287 106.332 283.356 89.0519 276.269C71.6164 269.119 55.76 258.605 42.3879 245.326C29.0159 232.048 18.3901 216.266 11.1174 198.881C3.90921 181.651 0.134611 163.181 0.00353528 144.507C0.00158827 144.23 0.225752 144.004 0.503136 144.003V144.003C0.78052 144.002 1.00608 144.226 1.00804 144.504C1.13864 163.045 4.8868 181.385 12.044 198.494C19.2659 215.757 29.8173 231.428 43.0957 244.614C56.3741 257.799 72.1196 268.24 89.4331 275.34C106.592 282.376 124.957 285.995 143.499 285.995C143.777 285.996 144.002 286.219 144.003 286.497V286.497Z" stroke="white" stroke-width="4" mask="url(#path-2-inside-1_1_12)"/>
</svg>
