<svg width="287" height="544" viewBox="0 0 287 544" fill="none" xmlns="http://www.w3.org/2000/svg">
<rect x="143" width="1" height="258" fill="white"/>
<mask id="path-2-inside-1_1_9" fill="white">
<path d="M286.498 400.5C286.775 400.5 287 400.275 286.999 399.998C286.934 381.324 283.224 362.84 276.077 345.585C268.865 328.175 258.295 312.355 244.97 299.03C231.645 285.705 215.825 275.135 198.415 267.923C181.16 260.776 162.676 257.066 144.002 257.001C143.725 257 143.5 257.225 143.5 257.502V257.502C143.5 257.78 143.725 258.004 144.002 258.005C162.544 258.071 180.897 261.754 198.031 268.851C215.319 276.012 231.028 286.509 244.26 299.74C257.491 312.972 267.988 328.681 275.149 345.969C282.246 363.103 285.929 381.456 285.995 399.998C285.996 400.275 286.22 400.5 286.498 400.5V400.5Z"/>
</mask>
<path d="M286.498 400.5C286.775 400.5 287 400.275 286.999 399.998C286.934 381.324 283.224 362.84 276.077 345.585C268.865 328.175 258.295 312.355 244.97 299.03C231.645 285.705 215.825 275.135 198.415 267.923C181.16 260.776 162.676 257.066 144.002 257.001C143.725 257 143.5 257.225 143.5 257.502V257.502C143.5 257.78 143.725 258.004 144.002 258.005C162.544 258.071 180.897 261.754 198.031 268.851C215.319 276.012 231.028 286.509 244.26 299.74C257.491 312.972 267.988 328.681 275.149 345.969C282.246 363.103 285.929 381.456 285.995 399.998C285.996 400.275 286.22 400.5 286.498 400.5V400.5Z" stroke="white" stroke-width="4" mask="url(#path-2-inside-1_1_9)"/>
</svg>
